<?xml version="1.0" encoding="UTF-8" ?>
<!DOCTYPE svg PUBLIC "-//W3C//DTD SVG 1.1//EN" "http://www.w3.org/Graphics/SVG/1.1/DTD/svg11.dtd">
<svg width="1680pt" height="450pt" viewBox="0 0 1680 450" version="1.1" xmlns="http://www.w3.org/2000/svg">
<g id="#ffffffff">
<path fill="#ffffff" opacity="1.00" d=" M 372.44 79.72 C 394.76 73.31 418.97 76.29 440.00 85.68 C 436.86 99.69 433.47 113.66 429.96 127.59 C 418.88 122.31 406.39 116.71 393.91 119.92 C 388.85 121.07 383.95 123.97 381.65 128.78 C 377.62 136.01 379.38 146.13 386.49 150.78 L 386.62 151.12 C 396.13 158.99 407.12 164.75 417.31 171.63 C 419.06 172.99 420.76 174.41 422.54 175.74 C 425.38 178.56 428.34 181.29 430.94 184.35 L 431.26 184.43 C 451.75 208.28 452.36 246.83 432.07 270.97 C 419.56 285.27 400.59 292.22 382.03 293.74 C 361.82 295.20 340.72 292.31 322.94 282.10 C 326.35 268.05 329.79 254.00 333.53 240.04 C 347.55 247.14 363.26 253.23 379.25 250.58 C 385.76 249.72 391.51 245.06 393.62 238.84 C 395.59 232.01 394.17 224.31 389.43 218.93 C 383.10 211.83 374.64 207.20 366.68 202.19 C 353.63 194.55 341.37 184.57 334.04 171.10 C 319.85 143.83 328.26 106.44 353.84 88.92 C 359.62 85.01 365.91 82.11 372.44 79.72 Z" />
<path fill="#ffffff" opacity="1.00" d=" M 546.72 84.88 C 559.15 76.85 574.61 74.88 589.03 77.14 C 602.33 79.44 614.67 87.62 621.34 99.45 C 622.27 100.99 622.53 102.98 623.97 104.16 C 627.38 101.20 629.38 96.87 632.91 93.95 C 643.44 82.17 659.39 76.21 675.02 76.35 C 686.62 76.01 698.50 79.30 707.58 86.71 L 707.65 87.06 C 719.26 97.11 725.32 112.23 727.39 127.17 C 730.88 144.53 730.01 162.34 730.13 179.94 C 730.06 217.13 730.21 254.32 730.25 291.50 C 711.20 291.54 692.16 291.45 673.11 291.55 C 673.15 247.71 673.11 203.87 673.13 160.03 C 673.12 149.18 672.28 137.40 665.55 128.39 C 658.53 120.56 644.35 122.58 638.79 131.17 C 631.20 140.99 630.63 154.11 630.88 166.03 C 630.88 207.87 630.86 249.71 630.89 291.55 C 612.04 291.47 593.20 291.49 574.35 291.54 C 574.41 249.02 574.36 206.49 574.38 163.97 C 574.38 155.04 574.71 145.84 571.80 137.27 C 570.20 132.43 567.33 127.45 562.52 125.25 C 558.21 122.76 552.83 123.19 548.33 124.93 C 539.35 129.46 534.21 139.28 532.89 148.95 C 531.60 158.57 532.31 168.31 532.13 177.99 C 532.03 215.83 532.31 253.66 532.25 291.50 C 513.20 291.54 494.16 291.45 475.11 291.55 C 475.14 237.67 475.39 183.79 475.05 129.92 C 474.32 113.44 474.33 96.93 473.75 80.45 C 473.94 80.28 474.32 79.94 474.51 79.77 C 490.77 79.73 507.04 79.74 523.30 79.77 C 524.22 87.92 524.87 96.09 525.93 104.23 C 531.79 96.73 538.53 89.84 546.72 84.88 Z" />
<path fill="#ffffff" opacity="1.00" d=" M 771.01 92.11 C 797.52 78.29 828.50 73.48 858.01 78.04 C 875.51 81.12 892.31 91.26 900.84 107.20 C 907.37 119.78 910.37 133.86 911.50 147.91 C 913.33 186.01 911.26 224.17 912.69 262.28 C 912.92 272.12 914.15 281.91 915.57 291.65 C 898.46 291.57 881.35 291.38 864.24 291.58 C 862.92 284.68 862.29 277.67 860.98 270.77 C 845.21 294.70 810.02 302.11 785.63 287.35 C 775.78 280.90 768.21 271.24 763.65 260.43 C 751.47 232.15 757.85 195.83 781.40 175.29 C 801.70 158.40 828.64 151.77 854.62 151.59 C 855.40 141.35 852.32 129.77 843.50 123.66 C 839.10 120.25 833.46 119.59 828.12 118.93 C 811.79 117.61 795.44 122.59 781.51 130.93 C 778.01 117.99 774.42 105.07 771.01 92.11 M 829.58 194.53 C 824.68 197.07 819.99 200.42 817.11 205.25 C 810.39 215.51 810.36 229.07 814.79 240.24 C 817.92 246.97 824.11 253.14 831.98 253.16 C 844.38 253.02 854.82 242.16 855.97 230.07 C 856.88 216.27 856.40 202.43 856.44 188.61 C 847.30 189.28 837.86 190.28 829.58 194.53 Z" />
<path fill="#ffffff" opacity="1.00" d=" M 1163.07 77.47 C 1176.38 74.70 1190.63 76.64 1202.37 83.64 C 1205.05 85.76 1207.93 87.60 1210.59 89.75 L 1210.66 90.07 C 1212.29 91.43 1213.81 92.92 1215.27 94.48 C 1222.46 102.44 1227.11 112.32 1230.78 122.31 C 1239.04 144.75 1240.32 168.97 1240.05 192.65 C 1239.29 203.74 1238.91 214.94 1236.45 225.83 C 1232.65 244.96 1224.78 263.85 1211.16 278.09 C 1203.24 286.02 1193.05 291.66 1182.05 293.87 C 1171.27 296.15 1159.35 294.91 1150.08 288.66 C 1144.14 285.23 1140.16 279.52 1135.62 274.58 C 1135.38 308.01 1135.52 341.45 1135.55 374.89 C 1116.51 374.86 1097.48 374.87 1078.45 374.89 C 1078.55 311.58 1078.47 248.27 1078.49 184.96 C 1078.36 156.66 1078.95 128.35 1077.65 100.08 C 1077.44 93.30 1077.25 86.52 1077.09 79.73 C 1093.57 79.73 1110.06 79.82 1126.55 79.69 C 1127.49 87.61 1128.36 95.54 1129.44 103.44 C 1131.40 101.34 1132.57 98.66 1134.36 96.42 C 1141.30 87.02 1151.58 79.91 1163.07 77.47 M 1152.75 125.18 C 1147.04 127.13 1142.44 131.75 1140.04 137.22 C 1137.21 144.13 1135.50 151.53 1135.61 159.02 C 1135.38 176.69 1135.51 194.36 1135.75 212.03 C 1135.52 221.31 1136.95 230.98 1141.94 238.98 C 1145.17 244.09 1150.64 248.21 1156.85 248.42 C 1164.39 248.07 1170.68 242.55 1174.17 236.17 C 1179.66 226.35 1180.61 214.96 1182.21 204.05 C 1183.76 187.11 1183.72 169.84 1179.81 153.20 C 1178.30 144.26 1175.54 134.70 1168.32 128.64 C 1164.23 124.86 1158.05 123.23 1152.75 125.18 Z" />
<path fill="#ffffff" opacity="1.00" d=" M 1034.99 78.05 C 1042.17 75.53 1049.92 76.63 1057.37 76.65 C 1057.50 95.54 1057.48 114.43 1057.61 133.32 C 1049.09 132.59 1039.94 132.21 1032.16 136.34 C 1022.29 140.92 1015.46 150.30 1012.09 160.43 C 1009.87 167.04 1009.01 174.01 1008.87 180.96 C 1008.89 217.82 1008.85 254.68 1008.89 291.55 C 989.63 291.48 970.37 291.48 951.11 291.55 C 951.01 245.36 951.35 199.17 951.13 152.99 C 951.29 128.69 950.34 104.41 949.60 80.13 C 966.16 79.47 982.76 79.87 999.34 79.74 C 1000.44 89.99 1001.14 100.30 1002.64 110.49 C 1005.50 106.82 1006.94 102.30 1009.69 98.55 C 1015.83 89.49 1024.22 81.16 1034.99 78.05 Z" />
<path fill="#ffffff" opacity="1.00" d=" M 1273.96 91.86 C 1302.71 77.61 1336.37 72.28 1367.81 79.63 C 1385.44 84.33 1400.90 97.52 1407.08 114.85 C 1416.97 138.98 1414.46 165.56 1414.87 191.03 C 1415.30 224.52 1413.30 258.24 1418.29 291.49 C 1401.11 291.52 1383.93 291.51 1366.76 291.49 C 1365.76 284.66 1365.58 277.59 1363.64 270.95 C 1353.30 284.98 1336.74 294.95 1319.02 294.88 C 1299.21 296.07 1279.00 285.04 1269.92 267.29 C 1259.84 249.04 1257.88 226.64 1264.06 206.80 C 1268.68 191.75 1278.61 178.49 1291.76 169.83 C 1310.89 156.79 1334.42 151.85 1357.29 151.71 C 1358.09 142.72 1356.08 133.00 1349.58 126.38 C 1345.19 121.38 1338.39 119.86 1332.08 119.05 C 1315.45 117.40 1298.64 122.35 1284.44 130.85 C 1280.90 117.86 1277.38 104.88 1273.96 91.86 M 1327.51 197.37 C 1314.50 206.32 1311.94 224.77 1317.14 238.81 C 1319.18 245.25 1324.43 250.88 1331.13 252.42 C 1336.07 254.13 1341.37 252.38 1345.81 250.07 C 1354.01 245.51 1358.78 236.26 1359.10 227.04 C 1359.19 214.25 1359.06 201.45 1359.16 188.66 C 1348.19 189.25 1336.79 191.12 1327.51 197.37 Z" />
<path fill="#ffffff" opacity="1.00" d=" M 1430.96 79.88 C 1451.47 79.92 1471.99 79.78 1492.50 79.95 C 1501.07 127.77 1511.34 175.30 1518.13 223.43 C 1519.31 222.63 1519.43 221.22 1519.63 219.94 C 1527.01 173.21 1534.65 126.51 1541.89 79.76 C 1560.49 79.62 1579.08 79.94 1597.69 79.85 C 1583.94 132.64 1569.69 185.30 1555.82 238.06 C 1552.77 248.74 1550.52 259.65 1546.68 270.09 C 1541.38 288.36 1534.64 306.25 1525.90 323.17 C 1516.24 341.12 1503.92 358.24 1486.92 369.88 C 1478.55 376.32 1468.99 381.05 1459.06 384.56 C 1453.20 368.23 1447.40 351.88 1441.73 335.48 C 1460.48 327.46 1477.26 313.61 1486.33 295.10 C 1488.68 289.93 1491.81 284.26 1489.64 278.46 C 1470.21 212.23 1450.31 146.13 1430.96 79.88 Z" />
<path fill="#ffffff" opacity="1.00" d=" M 163.83 116.10 C 163.33 103.90 178.39 95.11 188.89 101.10 C 195.93 103.86 199.03 111.81 198.96 118.91 C 199.06 135.40 198.97 151.89 199.00 168.37 C 216.99 168.15 234.99 168.28 252.98 168.73 C 262.67 169.36 269.79 179.81 267.73 189.11 C 266.67 194.08 263.77 198.90 259.12 201.22 C 255.75 203.16 251.77 203.57 247.97 203.64 C 231.64 203.61 215.32 203.63 199.00 203.63 C 198.94 221.44 199.19 239.27 198.64 257.08 C 198.15 267.44 186.66 275.14 176.84 272.19 C 169.95 270.49 164.44 264.28 164.01 257.12 C 163.45 239.34 163.74 221.53 163.57 203.74 C 146.05 203.74 128.53 203.77 111.02 203.44 C 99.97 203.60 91.76 191.07 95.27 180.86 C 97.14 173.08 105.27 168.40 112.91 168.46 C 129.81 168.27 146.72 168.42 163.62 168.39 C 163.67 150.96 163.73 133.53 163.83 116.10 Z" />
</g>
<g id="#c11718ff">
<path fill="#c11718" opacity="1.00" d=" M 93.57 77.69 C 96.02 77.20 98.53 77.23 101.01 77.20 C 155.67 77.25 210.34 77.16 265.01 77.24 C 276.68 77.32 287.56 86.37 289.54 97.89 C 289.83 103.27 290.38 108.65 290.26 114.04 C 290.23 164.69 290.25 215.33 290.25 265.98 C 290.11 270.23 289.84 274.57 288.33 278.59 C 284.49 287.80 275.16 294.86 264.99 294.75 C 210.33 294.84 155.68 294.75 101.02 294.79 C 96.38 294.88 91.59 294.60 87.41 292.37 C 78.40 288.39 72.29 278.85 72.55 268.97 C 72.47 214.31 72.55 159.64 72.50 104.97 C 72.44 98.14 74.27 91.12 78.90 85.95 C 82.81 81.82 87.94 78.74 93.57 77.69 M 163.83 116.10 C 163.73 133.53 163.67 150.96 163.62 168.39 C 146.72 168.42 129.81 168.27 112.91 168.46 C 105.27 168.40 97.14 173.08 95.27 180.86 C 91.76 191.07 99.97 203.60 111.02 203.44 C 128.53 203.77 146.05 203.74 163.57 203.74 C 163.74 221.53 163.45 239.34 164.01 257.12 C 164.44 264.28 169.95 270.49 176.84 272.19 C 186.66 275.14 198.15 267.44 198.64 257.08 C 199.19 239.27 198.94 221.44 199.00 203.63 C 215.32 203.63 231.64 203.61 247.97 203.64 C 251.77 203.57 255.75 203.16 259.12 201.22 C 263.77 198.90 266.67 194.08 267.73 189.11 C 269.79 179.81 262.67 169.36 252.98 168.73 C 234.99 168.28 216.99 168.15 199.00 168.37 C 198.97 151.89 199.06 135.40 198.96 118.91 C 199.03 111.81 195.93 103.86 188.89 101.10 C 178.39 95.11 163.33 103.90 163.83 116.10 Z" />
</g>
</svg>
